<?xml version="1.0" encoding="iso-8859-1"?>
<!-- Generator: Adobe Illustrator 19.0.0, SVG Export Plug-In . SVG Version: 6.00 Build 0)  -->
<svg version="1.1" id="Capa_1" xmlns="http://www.w3.org/2000/svg" xmlns:xlink="http://www.w3.org/1999/xlink" x="0px" y="0px"
	 viewBox="0 0 470 470" style="enable-background:new 0 0 470 470;" xml:space="preserve">
<g>
	<path d="M462.5,368.451h-19.169h-11.008c-1.584-88.374-31.119-168.678-81.602-221.242c-9.652-10.05-22.435-15.363-36.966-15.363
		h-21.288c0.676-0.943,1.323-1.91,1.91-2.925c4.787-8.291,6.059-17.949,3.581-27.196s-8.408-16.976-16.699-21.763
		c-4.045-2.335-8.499-3.849-13.087-4.475c1.719-4.188,2.675-8.768,2.675-13.568c0-19.765-16.08-35.845-35.846-35.845
		c-19.765,0-35.845,16.08-35.845,35.845c0,4.8,0.955,9.38,2.675,13.568c-4.589,0.626-9.043,2.14-13.087,4.475
		c-8.291,4.787-14.221,12.516-16.699,21.763s-1.206,18.905,3.581,27.196c0.586,1.016,1.234,1.982,1.91,2.925h-21.031
		c-14.53,0-27.313,5.313-36.965,15.363c-50.483,52.563-80.019,132.868-81.603,221.242H26.978H7.5c-4.142,0-7.5,3.358-7.5,7.5
		s3.358,7.5,7.5,7.5h14.185c4.576,10.931,18.453,34.951,55.978,51.115c-0.153,0.596-0.242,1.218-0.242,1.861
		c0,4.142,3.358,7.5,7.5,7.5h300.468c4.143,0,7.5-3.358,7.5-7.5c0-0.644-0.09-1.265-0.242-1.861
		c37.525-16.164,51.402-40.185,55.977-51.115H462.5c4.143,0,7.5-3.358,7.5-7.5S466.643,368.451,462.5,368.451z M362.215,428.927
		H108.094c-26.122-6.503-47.15-18.001-60.833-33.297c-4.004-4.477-6.853-8.69-8.841-12.179h393.469
		c-1.989,3.491-4.837,7.704-8.84,12.179C409.366,410.926,388.338,422.424,362.215,428.927z M79.682,236.373
		c7.277,1.238,11.583,5.411,16.792,10.487c6.917,6.74,15.525,15.128,31.916,15.128s25-8.388,31.916-15.128
		c6.234-6.074,11.157-10.872,21.449-10.872c10.296,0,15.224,4.798,21.462,10.873c2.04,1.986,4.127,4.019,6.47,5.943v19.501
		c0,14.025,11.41,25.435,25.435,25.435s25.435-11.41,25.435-25.435v-19.501c2.343-1.924,4.431-3.957,6.47-5.943
		c6.238-6.074,11.165-10.872,21.461-10.872c10.298,0,15.226,4.798,21.465,10.873c2.04,1.987,4.129,4.021,6.473,5.945v16.277
		c0,4.141,3.355,7.498,7.496,7.5c4.146,0,7.504-3.358,7.504-7.5v-20c0-2.465-1.212-4.773-3.241-6.173
		c-2.706-1.868-5.165-4.261-7.768-6.795c-6.921-6.739-15.534-15.125-31.929-15.125c-16.393,0-25.005,8.387-31.926,15.125
		c-2.602,2.534-5.06,4.927-7.765,6.794c-2.029,1.4-3.24,3.708-3.24,6.173v23.224c0,5.753-4.681,10.435-10.435,10.435
		c-5.753,0-10.435-4.681-10.435-10.435v-23.224c0-2.465-1.211-4.772-3.24-6.173c-2.706-1.867-5.164-4.261-7.766-6.794
		c-6.92-6.739-15.533-15.125-31.926-15.125c-16.391,0-25,8.388-31.917,15.128c-6.233,6.074-11.157,10.872-21.448,10.872
		s-15.214-4.797-21.447-10.872c-5.181-5.049-11.312-11.021-20.951-13.701c11.898-24.588,26.784-46.513,44.364-64.816
		c6.756-7.035,15.797-10.753,26.146-10.753h157.253c10.35,0,19.392,3.718,26.147,10.753c17.579,18.304,32.465,40.228,44.363,64.816
		c-9.642,2.679-15.778,8.65-20.962,13.698c-2.603,2.534-5.062,4.928-7.769,6.796c-2.029,1.4-3.241,3.708-3.241,6.173v73.222
		c0,5.753-4.681,10.435-10.435,10.435s-10.435-4.681-10.435-10.435v-23.222c0-4.142-3.357-7.5-7.5-7.5
		c-4.145,0.002-7.5,3.359-7.5,7.5v23.222c0,14.025,11.41,25.435,25.435,25.435s25.435-11.41,25.435-25.435v-69.499
		c2.344-1.924,4.434-3.958,6.474-5.945c5.215-5.077,9.525-9.25,16.808-10.488c16.543,39.24,25.864,84.378,26.749,132.078H52.934
		C53.818,320.75,63.139,275.612,79.682,236.373z M186.532,105.606c1.441-5.377,4.89-9.871,9.71-12.655
		c3.169-1.83,6.763-2.797,10.394-2.797c7.437,0,14.362,3.995,18.075,10.425c2.783,4.821,3.523,10.437,2.082,15.814
		s-4.89,9.871-9.71,12.655c-3.169,1.83-6.763,2.796-10.394,2.796c-7.437,0-14.362-3.995-18.075-10.425
		C185.831,116.6,185.091,110.983,186.532,105.606z M235,41.073c11.494,0,20.846,9.351,20.846,20.845S246.494,82.763,235,82.763
		s-20.845-9.351-20.845-20.845S223.506,41.073,235,41.073z M281.386,121.421c-3.712,6.43-10.638,10.424-18.074,10.424
		c-3.631,0-7.226-0.967-10.395-2.796c-9.952-5.746-13.374-18.517-7.628-28.469c3.713-6.431,10.639-10.425,18.075-10.425
		c3.631,0,7.225,0.967,10.394,2.797c4.821,2.784,8.27,7.277,9.71,12.654S284.169,116.599,281.386,121.421z"/>
	<path d="M136.667,324.239c4.411,0,8-3.589,8-8s-3.589-8-8-8s-8,3.589-8,8S132.255,324.239,136.667,324.239z"/>
	<path d="M106.667,304.239c4.411,0,8-3.589,8-8s-3.589-8-8-8s-8,3.589-8,8S102.255,304.239,106.667,304.239z"/>
</g>
<g>
</g>
<g>
</g>
<g>
</g>
<g>
</g>
<g>
</g>
<g>
</g>
<g>
</g>
<g>
</g>
<g>
</g>
<g>
</g>
<g>
</g>
<g>
</g>
<g>
</g>
<g>
</g>
<g>
</g>
</svg>
